# xmcd CD database file
#
# Track frame offsets:
#	150
#	15232
#	25910
#	43647
#	59020
#	78082
#	96580
#	117570
#	145110
#	163747
#	175895
#	199457
#
# Disc length: 2919 seconds
#
# Revision: 0
# Processed by: cddbd v1.5.1PL0 Copyright (c) Steve Scherf et al.
# Submitted via: CDex 1.51
#
DISCID=a40b650c
DTITLE=Chuck Berry - Johnny B. Goode
DYEAR=1900
DGENRE=Blues
TTITLE0=Maybellene
TTITLE1=Rock 'n' Roll Music
TTITLE2=Nadine
TTITLE3=School Days
TTITLE4=Bonsoir Cherie
TTITLE5=Carol
TTITLE6=Johnny B. Goode
TTITLE7=Reelin' And Rockin'
TTITLE8=Memphis Tennessee
TTITLE9=Sweet Sixteen
TTITLE10=In The Wee Hours
TTITLE11=My Ding  - A - Ling
EXTD=
EXTT0=
EXTT1=
EXTT2=
EXTT3=
EXTT4=
EXTT5=
EXTT6=
EXTT7=
EXTT8=
EXTT9=
EXTT10=
EXTT11=
PLAYORDER=
